<svg id="Layer_1" data-name="Layer 1" xmlns="http://www.w3.org/2000/svg" viewBox="0 0 850 512"><defs><style>.cls-1{fill:#fff;}</style></defs><title>logo</title><path class="cls-1" d="M360.18,276.66A64.82,64.82,0,1,0,425,211.85,64.83,64.83,0,0,0,360.18,276.66Zm217.15,34.21a22.86,22.86,0,1,0-21.21,24.4A22.86,22.86,0,0,0,577.33,310.87Zm-416.14,0a22.86,22.86,0,1,0,24.4-21.22A22.87,22.87,0,0,0,161.19,310.87Zm527.61,0a22.86,22.86,0,1,0-21.22,24.4A22.87,22.87,0,0,0,688.8,310.87Zm-416.15,0A22.85,22.85,0,1,0,297,289.65,22.87,22.87,0,0,0,272.65,310.87Zm157.16,47.18v35.3c0,6.45-9.68,6.45-9.68,0v-35.3a81.61,81.61,0,0,1-69.67-48.3,10.71,10.71,0,0,0-8-6.06l-.48-.05c-4.21-.29-8.24,2.41-8.26,5.51v79.13c0,7.39-11.1,7.39-11.1,0v-45.6a2.63,2.63,0,0,0-1.55-2.23,2.56,2.56,0,0,0-2.49.36,36.6,36.6,0,0,1-55.49-45.39l-50-5.17a36.56,36.56,0,1,1-53-5.51L95,278c-43.5-5.11-49.17-12.8-57.95-31.21L26.22,223.59a4.86,4.86,0,0,1-.44-1.79A4.2,4.2,0,0,1,30,217.63a3.9,3.9,0,0,1,3.68,2l13.16,28a23.84,23.84,0,0,0,17.85,11.83l274.06,9.24c3.25-.3,5.26-2.63,5.93-6.15l.06-.33c.36-2.12.83-4.2,1.36-6.25l-42.3-4.38c-5.17-.55-6.22-2.7-6.06-5s1.51-4.24,6.71-4.08l46.4.1a81.57,81.57,0,0,1,65.73-47.18l2.81-83.67c.23-6.46,2.81-7.94,5.65-7.94s5.35,1.48,5.61,7.94l2.81,83.67a81.57,81.57,0,0,1,65.73,47.18l46.39-.1c5.21-.17,6.54,1.81,6.7,4.08s-.88,4.41-6.06,5l-42.29,4.38q.79,3.07,1.35,6.25l.07.33c.66,3.52,2.66,5.85,5.92,6.15l274.06-9.24a23.83,23.83,0,0,0,17.84-11.83l13.15-28a4,4,0,0,1,3.69-2,4.2,4.2,0,0,1,4.21,4.17,4.86,4.86,0,0,1-.44,1.79L813,246.8c-8.77,18.41-14.47,26.1-58,31.25l-65,6.74a36.59,36.59,0,1,1-53,5.51l-50,5.17A36.63,36.63,0,0,1,557.11,349a36.5,36.5,0,0,1-25.63-8.12,2.59,2.59,0,0,0-2.5-.35,2.52,2.52,0,0,0-1.56,2.23v45.6c0,7.4-11.09,7.4-11.09,0V309.2c0-3.1-4.08-5.82-8.29-5.51l-.45.05a10.8,10.8,0,0,0-8.07,6.06A81.63,81.63,0,0,1,429.81,358.05Zm-58.07-99.33a55.28,55.28,0,0,1,8.42-15.93l39.76.08a1.79,1.79,0,0,1,1.79,1.78v17.47a1.56,1.56,0,0,1-1.79,1.58Zm98.09-15.92a56.28,56.28,0,0,1,8.42,15.93l-48.18,5a1.57,1.57,0,0,1-1.79-1.58V244.67a1.79,1.79,0,0,1,1.79-1.79ZM402.5,310.87a22.85,22.85,0,1,1,21.21,24.4A22.87,22.87,0,0,1,402.5,310.87Zm-82.41,65.72v23.8a9.67,9.67,0,0,1-9.68,9.67h-1a9.66,9.66,0,0,1-9.68-9.67v-23.8a9.68,9.68,0,0,1,9.68-9.69h1A9.68,9.68,0,0,1,320.09,376.59Zm36.72,0v23.8a9.66,9.66,0,0,1-9.67,9.67h-1a9.67,9.67,0,0,1-9.68-9.67v-23.8a9.69,9.69,0,0,1,9.68-9.69h1A9.69,9.69,0,0,1,356.81,376.59Zm75.34,9.11a7.09,7.09,0,0,1,7.09-7.09h.66a7.1,7.1,0,0,1,7.1,7.09V403a7.11,7.11,0,0,1-7.1,7.1h-.66a7.09,7.09,0,0,1-7.09-7.1Zm-29.6,0a7.09,7.09,0,0,1,7.09-7.09h.66a7.09,7.09,0,0,1,7.1,7.09V403a7.1,7.1,0,0,1-7.1,7.1h-.66a7.09,7.09,0,0,1-7.09-7.1Zm90.64-9.11a9.67,9.67,0,0,1,9.67-9.69h1a9.69,9.69,0,0,1,9.68,9.69v23.8a9.67,9.67,0,0,1-9.68,9.67h-1a9.66,9.66,0,0,1-9.67-9.67Zm36.7,0a9.69,9.69,0,0,1,9.68-9.69h1a9.68,9.68,0,0,1,9.68,9.69v23.8a9.65,9.65,0,0,1-9.68,9.67h-1a9.67,9.67,0,0,1-9.68-9.67Z"/><path class="cls-1" d="M605.91,458.73l3.21-3.38A248.41,248.41,0,0,0,662,370.89a58.42,58.42,0,0,1-25.17-7.67,226.6,226.6,0,0,1-73.37,98.17l-30,23.46H663.92V458.73h-58Z"/><path class="cls-1" d="M278,109.48a227.07,227.07,0,0,1,307.58,12.07,224.36,224.36,0,0,1,62.85,120.59l26.34-.89A252.55,252.55,0,0,0,425.5,29.15a253.61,253.61,0,0,0-250.26,212.1l26.36.89A226.63,226.63,0,0,1,278,109.48Z"/><path class="cls-1" d="M221,381.94c-2.91-6-5.61-12.23-8-18.64a58.33,58.33,0,0,1-25.32,7.57,244.26,244.26,0,0,0,52.3,84.48l3.2,3.38H175v26.12H315.49l-30-23.47A227.11,227.11,0,0,1,221,381.94Z"/></svg>